<svg xmlns="http://www.w3.org/2000/svg" viewBox="0 0 480 480" fill="none">
  <defs>
    <linearGradient id="gold" x1="80" y1="60" x2="400" y2="420">
      <stop stop-color="#F6E27A"/>
      <stop offset="0.45" stop-color="#D4AF37"/>
      <stop offset="1" stop-color="#9A7B1A"/>
    </linearGradient>
    <radialGradient id="shine" cx="0.35" cy="0.3" r="0.55">
      <stop stop-color="#FFF8D6" stop-opacity="0.9"/>
      <stop offset="1" stop-color="#FFF8D6" stop-opacity="0"/>
    </radialGradient>
    <filter id="shadow" x="-20%" y="-20%" width="140%" height="140%">
      <feDropShadow dx="0" dy="18" stdDeviation="16" flood-color="#000" flood-opacity="0.22"/>
    </filter>
  </defs>
  <ellipse cx="240" cy="400" rx="150" ry="28" fill="#000" fill-opacity="0.12"/>
  <g filter="url(#shadow)">
    <path
      d="M240 72c88 0 160 72 160 160s-72 160-160 160S80 320 80 232 152 72 240 72Zm0 48c-61.9 0-112 50.1-112 112s50.1 112 112 112 112-50.1 112-112-50.1-112-112-112Z"
      fill="url(#gold)"
    />
    <path
      d="M240 120c61.9 0 112 50.1 112 112s-50.1 112-112 112"
      stroke="url(#shine)"
      stroke-width="18"
      stroke-linecap="round"
      opacity="0.65"
    />
  </g>
</svg>
